<?xml version="1.0" encoding="utf-8"?>
<!-- Generator: Adobe Illustrator 25.2.0, SVG Export Plug-In . SVG Version: 6.00 Build 0)  -->
<svg version="1.1" id="Layer_1" xmlns="http://www.w3.org/2000/svg" xmlns:xlink="http://www.w3.org/1999/xlink" x="0px" y="0px"
	 viewBox="0 0 200 200" style="enable-background:new 0 0 200 200;" xml:space="preserve">
<style type="text/css">
	.st0{fill:#F7F6F0;}
</style>
<g>
	<path class="st0" d="M122,177.1c-1.2-0.2-2-0.2-3.2,0l-6.9,1.1l2.3,14.3l5.5-0.9c2.3-0.4,4.9-0.8,6.4-2.8c0.8-1,1.5-2.7,1.1-5.6
		C126.8,180.4,125.1,177.7,122,177.1z"/>
	<path class="st0" d="M97.9,99.6c-0.2,6.1,6.5,8.8,9.4,7.9c2.2-0.7,3.1-4.4,0.5-7.7C105.2,96.7,98.1,94.4,97.9,99.6z"/>
	<path class="st0" d="M90.1,85.6c-0.4-0.2-0.9,0.1-1.1,0.5c-1.7,4.6-3.4,7.4-5.4,10.3c-0.3,0.4-0.2,0.9,0.2,1.2
		c0.1,0.1,0.3,0.1,0.5,0.2c0.3,0,0.5-0.1,0.7-0.4c2.1-3,3.8-6,5.6-10.7C90.8,86.3,90.6,85.8,90.1,85.6z"/>
	<path class="st0" d="M48,83.2c-1.3,1.7-2.9,7.2-0.8,9.7c2,2.3,5.5,2.5,7.2,1c1.1-1,3.3-4.3,1.3-8C53.8,82.6,50.3,80.3,48,83.2z"/>
	<path class="st0" d="M151.2,169.3c-0.7-0.7-2.5-2.3-5.3-2.1c-0.9,0.1-2.9,0.4-5,1.8c-0.6,0.4-2.5,1.8-3.4,3.9
		c-0.5,1.2-1.1,3.9,0.7,6.8c0.2,0.4,0.9,1.4,2,2.2c3.8,2.8,8.1,0.5,9.2-0.2c0.7-0.5,2.8-1.8,3.8-4.3c1.2-3.2-0.2-5.8-0.8-6.7
		C152.2,170.5,151.9,170,151.2,169.3z"/>
	<path class="st0" d="M0.1-0.7v201.4h200.8V-0.7H0.1z M187.2,96.1c0.9,1.7,0.5,5.5-1.4,4.9c-2.1-0.7-3.2-3.8-2.2-5.7
		C184.3,93.9,186.4,94.6,187.2,96.1z M151,67.3c0.6-2.7,3-5.8,5.8-6.3c3.2-0.5,2.4,4.2,1.6,6.7c-1,3.3-3.3,3.6-4.9,3.3
		C151.9,70.8,150.5,69.7,151,67.3z M147,16.3c1.1,1.8,1.2,5.1-1.9,5.5c-3.1,0.3-3.4-3.6-3.4-5.8C141.7,11.9,146,14.5,147,16.3z
		 M120.7,6.5c1.6-2,5.9-1.1,4.5,1.9s-3.9,3.7-5,2.6C119.1,9.9,119.6,7.9,120.7,6.5z M107.9,58.4c2.5-0.1,4.9,2.9,3.9,6.5
		c-1,3.6-3.7,4.3-6.1,1.8C103.4,64.4,103.3,58.6,107.9,58.4z M62.3,24.8c1.7-0.8,5-0.4,7.1,2.6c2.1,3.1,0.6,7.1-2.7,7.3
		s-4.3-4-5.4-6.1C60.2,26.6,60.8,25.5,62.3,24.8z M53.5,29c1.4-0.7,3.5-0.2,3.4,2c-0.1,2.2-1.6,2.8-3.4,2.2
		C51.7,32.6,52.1,29.7,53.5,29z M9.2,89c-1.9,1.6-4.8,2.5-5.7,0c-0.8-2.5,1.4-4.6,2.2-5.9C7,80.6,8,80.9,9.5,82
		C11,83.2,11.1,87.5,9.2,89z M39.3,158.1c-0.9,1.7-5,1.5-7.1-1.3c-2.1-2.9-1.1-5.1,1.5-4.5C38.1,153.3,40.2,156.3,39.3,158.1z
		 M70.3,174c0-0.2-0.1-0.5-0.2-0.8c-0.7-2.2-2.6-3.7-4.5-4.7c-0.4-0.2-2.5-1.3-4.5-1.2c-0.6,0-1.2,0.2-1.7,0.5
		c-0.2,0.1-0.6,0.4-0.9,0.9c-0.6,1.1,0.1,2,0.3,2.3c0.5,0.6,1.2,1.1,2.5,2.1c3.1,2.2,5.1,3.5,6.2,4.8c1.1,1.3,1.4,2.9,0.6,4.5
		c-0.2,0.4-0.8,1.3-1.9,1.9c-1.7,0.9-4.4,1.1-8.2-0.8c-0.4-0.2-0.9-0.5-1.3-0.7c-0.6-0.4-3.8-2.2-4.6-5.3c-0.3-0.9-0.3-1.7-0.3-2.6
		l1.9,0.2c-0.1,0.6-0.2,1.9,0.6,3.3c0.6,1.1,1.9,2.4,4.3,3.7c0.6,0.3,2.7,1.4,4.9,1.3c1.2-0.1,2.4-0.5,2.9-1.7
		c0.5-0.9,0.3-1.6,0.1-2c-0.6-1.3-3-3-4.1-3.7c-0.9-0.6-1.7-1.2-2.6-1.8c-0.9-0.7-2-1.4-2.7-2.4c-0.4-0.5-1.3-2-0.4-3.8
		c0.8-1.5,2.4-2.2,4-2.3c1.8-0.1,3.9,0.7,5.4,1.5c0.9,0.5,3.8,2.1,5.2,5.2c0.3,0.7,0.4,1.3,0.5,1.6L70.3,174z M88.8,177.4l-7.1-2.1
		l-4.5,15.3l-1.6-0.5l4.5-15.3l-7.5-2.2l0.4-1.4l16.2,4.8L88.8,177.4z M107.3,187.7c0,0.6-0.1,2.5-1.3,4.2c-1.1,1.6-2.7,2.2-4.5,2.5
		c-1.5,0.2-2.6,0.2-3.2,0.1c-0.5,0-2.5-0.2-4.2-0.8c-0.9-0.3-3.2-1.2-4-4c-0.3-1.2-0.3-2.3-0.2-3.5l0.6-10l1.6,0.1l-0.6,9.3
		c-0.1,1.6-0.3,3.3,0.6,4.7c0.8,1.3,2.5,2.3,5.7,2.5c3.9,0.2,5.9-0.4,7-2.1c0.7-1,0.9-2.1,1-4.4l0.6-9.2l1.6,0.1L107.3,187.7z
		 M99.6,147.1c0-2.9,2.8-1.5,3.8-0.3c0.9,1.2,0.8,2.9-0.7,3.2C101.1,150.4,99.6,148.6,99.6,147.1z M129,185.6
		c-0.2,2.3-1.3,4.3-3.2,5.6c-1.6,1.1-3.4,1.4-5.2,1.7l-7.8,1.2l-2.7-17.1l8.6-1.4c0.5-0.1,1-0.2,1.5-0.2c1.7-0.2,3.3,0.1,4.8,1
		c3.1,1.8,3.8,5.3,4,6.4C129,183.3,129.1,184.4,129,185.6z M115.2,144.8c6.2-2.2,8.4,3.5,7.1,5.7c-1.4,2.1-5.2,3.2-8.3,0.9
		C110.8,149.1,112.5,145.8,115.2,144.8z M134.1,189.4l-5.3-16.5l1.6-0.5l5.3,16.5L134.1,189.4z M155.3,175.7
		c-0.6,4.3-4.1,6.7-5.2,7.4c-1.2,0.7-5.7,3.2-10.2,0.8c-1.9-1.1-2.9-2.5-3.3-3.2c-0.3-0.5-1-1.7-1.3-3.4c-0.7-4.2,1.8-7.7,5.2-9.8
		c1.2-0.7,5.4-3.1,9.8-0.9c2.1,1,3.3,2.6,3.7,3.4C154.6,170.7,155.7,172.9,155.3,175.7z M146.1,151.5c0.8-2.6,3.2-0.8,4,0.4
		c0.8,1.1,2.1,5.4-1.3,5S145.5,153.3,146.1,151.5z M185.6,163.5c-0.7,0.5-1.4,0.7-2.3,0.7c-3.3,0-8.1-3.3-14.5-9.8
		c-2.5-2.6-5.3-5.7-8-8.7c-5.3-5.9-14.2-15.8-15.9-15.2c-1,0.3-1,2-1,4.6c0,1,0.1,2.2,0,3.4c-0.3,4.5-0.6,8.9-0.8,12.1l-0.1,0.8
		c-0.5,7-4.9,7.9-9.1,7.9c0,0,0,0,0,0l-0.6,0c-1.7,0-3.7,0-5-1.4c-1.2-1.4-1.5-3.9-0.8-7.8c0.3-2-0.5-4.4-1.2-6.5
		c-0.6-1.8-1.2-3.5-1.1-4.8c0.1-1.4,0.2-2.6,0.2-3.9c0.5-7.5,0.9-13.4-0.8-23.1c1.5-2.1,2-3.6,2-3.7c0.1-0.4-0.1-0.9-0.5-1.1
		c-0.4-0.1-0.9,0.1-1.1,0.5c0,0-0.2,0.6-0.8,1.6c0,0,0,0,0,0c-0.7,1.1-1.5,2.2-2.3,3.3c-0.1,0.1-0.2,0.3-0.4,0.4c0,0,0,0.1-0.1,0.1
		c-4.4,5.3-11.6,4.3-16.4,3.6c-1.8-0.2-3.8-0.5-4.3-0.2c-1.3,0.9-2.1,2.9-1.7,4.5c0.2,0.9,0.8,2.1,2.8,2.5c2.1,0.4,4.2,0,6.3-0.3
		c3.2-0.5,6.5-1.1,9.2,1.3c4.4,4,6.2,8.4,4.5,11.1c-1.1,1.7-3,2.1-4.8,2.4c-0.9,0.2-1.9,0.3-2.7,0.7c-1.1,0.5-1.9,1.2-2.7,1.9
		c-1.5,1.3-3,2.6-6.2,2.6c-12.5,0-21.5-4.3-26.6-12.7c-3.6-5.9-5.6-12.4-6.1-18.9c2.5-2.2,5.4-5.1,6.8-6.7c0.3-0.4,0.3-0.9-0.1-1.2
		c-0.4-0.3-0.9-0.3-1.2,0.1c-1.6,1.9-4.9,5.1-7.6,7.4c-4.7,3.4-9.8,6.1-12.5,4.5c-0.3-0.2-0.7-0.4-1-0.7c-0.8-0.7-1.5-1.2-2.7-0.9
		c-1,0.2-1.6-0.1-2.1-0.4c-0.5-0.3-0.9-0.5-1.8-0.2c-0.3,0.1-0.6,0.4-0.8,0.8c-0.5,1-1.7,5.5,4,19.3c2.8,6.7,3.3,11.8,1.5,15.2
		c-1.2,2.2-3.3,3.7-6.3,4.3c-0.6,0.1-1.1,0.2-1.6,0.2c-2.1,0-2.9-1.1-3.8-2.4c-0.5-0.8-1.1-1.6-2.1-2.5c-1.6-1.4-3.1-1.2-5-1
		c-1.8,0.2-3.9,0.5-6.2-0.8c-4.3-2.3-10.6-17.1-13.4-26.9c-2.9-9.8-1.4-19-0.6-22.5c0.2-1,0.8-3,1.5-5.3c0.9-2.8,1.8-5.9,2.2-7.8
		c0.7-3.3,0.6-8,0.4-12.2c-0.1-3.1-0.2-5.7,0.1-7.2c0.8-4.4,3.6-10.9,7.8-14.9c5.5-5.1,16.4-13.5,28.4-12.2c3.4,0.4,5.2,1.9,6.6,3.1
		c1.1,1,2,1.7,3.5,1.9c1.2,0.1,2.5,0.2,3.9,0.2c5.4,0.2,11.6,0.3,15.6,5.6c0.5,0.6,1.1,1.2,1.9,1.9c2.6,2.5,6.2,5.8,6.9,13.6
		c0.2,2.6-0.1,5.2-0.7,7.8c-0.1,0.4-1.2,4.4-2,6.8c-0.2,0.4,0.1,0.9,0.5,1.1c0.1,0,0.2,0.1,0.3,0.1c0.3,0,0.7-0.2,0.8-0.5
		c1-2.6,1.8-5.1,2.4-7.8c7.6-1.4,9.7,0.7,11.5,2.6c0.8,0.9,1.5,1.6,2.7,2c1,0.3,1.8,0.2,2.6,0.1c1.2-0.2,2.5-0.4,4.3,0.9l0.2,0.2
		c2,1.5,5,3.7,7.3,7.6c0.6,1.3,1.1,2.8,1.2,4.5c0,0.4,0.4,0.8,0.8,0.8c0,0,0,0,0.1,0c0.5,0,0.8-0.4,0.8-0.9c-0.2-3.3-1.6-6-2.9-7.7
		c-0.1-1.9-0.3-3.7-0.3-5.1c-0.3-4.6,0.6-8.2,1.5-12.1c0.9-3.8,1.8-7.7,1.6-12.8c-0.3-8.1-1.5-14.4-3.4-18c-2.3-4.4-1.8-11.9,0-16.4
		c0.8-2,1.8-3.2,2.9-3.6c1.8-0.6,6.1-2.1,9,1.3c1.5,1.7,1.6,4,1.7,6.4c0.1,3.6,0.3,7.3,4.8,10.1c6.7,4.2,6.6,8.7,6.4,13.4
		c0,1.3-0.1,2.6,0,4c0.1,1.4,0.3,2.9,0.5,4.3c0.8,4.8,1.5,9.8-3.2,12.8c-2.7,1.7-2.8,7.3-2.8,10.9c0,1.4,0,2.7-0.2,3.6
		c-0.5,2.8,1.3,11,3,13.6c0.8,1.2,1,2.8,1.1,4.2c0.3,2.5,0.5,3.4,1.9,3.4c3.4,0,7-4.1,7-5.8c0-2.6,3.3-9.1,12.5-19.2
		c2.3-2.5,4.5-1.6,6.3-0.9c0.9,0.4,1.7,0.7,2.5,0.7c1.9,0,3.9,1,5.4,2.6c1.2,1.3,1.9,2.9,1.9,4.1c-0.1,1.2-1.1,2.5-2.3,4
		c-1.6,2-3.5,4.4-3.1,6.8c0.1,0.5,0.2,0.9,0.3,1.4c0.5,2.2,1,4.6-2,7.8c-2.9,3.2-6.4,4.3-9.2,5.2c-1.1,0.3-2.1,0.7-2.9,1
		c-2,1-5.3,6-3.3,10.3c1.3,2.8,7.1,5.5,11.7,7.7c2.1,1,3.9,1.8,5.2,2.6c4.7,2.9,5.4,8.1,5.9,12.3c0.1,1.1,0.3,2.1,0.5,3.1
		c0.4,2,1.7,2.8,3.2,3.6c1.4,0.8,2.9,1.7,3.2,3.8C192.5,155.3,188.6,161.3,185.6,163.5z M192.8,142.4c-6.1-1.8-3.9-11-1.8-11.9
		c2.7-1.2,5.4,2.5,6.1,6.2C197.8,140.4,195.4,143.1,192.8,142.4z"/>
	<path class="st0" d="M127.2,94.5c-0.5,0.1-0.7,0.5-0.6,1c0.5,2.4,0.1,5.3-0.3,6.7c-0.1,0.4,0.1,0.9,0.6,1c0.1,0,0.2,0,0.3,0
		c0.3,0,0.7-0.3,0.8-0.6c0.5-1.9,0.9-5,0.3-7.5C128.1,94.6,127.7,94.4,127.2,94.5z"/>
</g>
</svg>
